<?xml version="1.0" standalone="no"?>
<!DOCTYPE svg PUBLIC "-//W3C//DTD SVG 1.1//EN" "http://www.w3.org/Graphics/SVG/1.1/DTD/svg11.dtd" >
<svg xmlns="http://www.w3.org/2000/svg">
<metadata>Generated by IcoMoon</metadata>
<defs>
<font id="icomoon-jfj" horiz-adv-x="1024">
<font-face units-per-em="1024" ascent="870.850439882698" descent="-153.14956011730206" />
<missing-glyph horiz-adv-x="1024" />
<glyph unicode="&#x20;" horiz-adv-x="0" d="" />
<glyph unicode="&#xe900;" glyph-name="shield" d="M501.49 841.283c-6.962-5.482-19.038-13.737-29.139-19.898-91.487-55.693-185.933-89.024-289.065-101.961-15.525-1.972-28.955-3.080-55.693-4.684-11.643-0.679-22.241-1.477-23.534-1.787-3.572-0.802-5.359-2.217-6.038-4.806-0.863-3.019-0.863-202.753-0.061-239.224 1.477-64.258 5.669-103.686 16.081-151.124 19.775-90.010 54.154-171.147 104.672-246.802 39.121-58.527 85.636-110.525 137.879-153.958 41.277-34.379 87.114-64.381 139.665-91.303 17.742-9.118 15.895-9.118 34.624 0.246 45.22 22.733 90.625 51.813 129.871 83.232 90.071 72.204 164.123 169.73 209.899 276.62 26.492 61.669 45.036 129.809 52.861 193.757 1.416 11.643 3.698 37.643 3.698 42.201v3.080l-124.386-124.386-1.293-4.373c-28.771-97.957-81.57-187.351-153.589-260.233-37.582-37.95-74.175-66.66-120.691-94.629l-13.553-8.194-6.901 4.005c-34.191 19.96-67.091 43.556-96.786 69.494-12.014 10.534-39.861 38.135-50.333 49.903-70.542 79.475-116.007 165.232-141.206 266.147-11.151 44.729-15.832 81.014-17.619 136.77-0.74 23.657-0.802 158.641-0.061 158.641 1.109 0 22.18 3.142 31.172 4.684 93.953 15.832 185.318 48.546 268.611 96.232 6.778 3.882 12.629 7.085 12.939 7.085 0.369 0 5.482-2.773 11.397-6.161 16.818-9.61 27.908-15.463 48.116-25.383 48.795-23.964 96.232-41.648 150.262-56.126l13.863-3.698 40.352 40.229c22.18 22.18 42.14 41.771 44.296 43.62l3.882 3.388-5.114 0.802c-54.768 8.132-115.022 25.445-168.128 48.116-46.7 20.024-102.823 51.196-127.59 70.91l-5.359 4.251-6.038-0.061h-6.099l-5.854-4.622z" />
<glyph unicode="&#xe901;" glyph-name="check-bold" horiz-adv-x="964" d="M854.251 835.762c-19.554-1.871-45.229-7.142-62.742-12.924-39.107-12.582-59.173-30.266-93.859-82.296-78.385-117.664-132.456-211.182-195.028-337.518-57.302-115.283-96.070-206.251-128.546-300.96-5.44-15.812-11.222-32.647-12.924-37.236l-2.891-8.331-4.081 8.331c-8.162 16.154-24.994 45.74-34.176 60.023-26.695 41.488-74.985 101.51-111.712 139.089-20.235 20.574-31.457 27.546-49.991 31.115-41.829 7.992-105.591-11.053-135.858-40.468-11.222-11.053-15.984-20.404-16.154-32.477-0.17-17.344 7.142-28.397 30.437-45.91 8.162-6.291 15.642-14.453 26.526-29.247 14.622-19.723 30.946-40.128 59.173-73.795 41.488-49.31 85.868-111.373 134.157-187.378 31.457-49.821 39.958-54.072 105.591-54.072 43.188 0 59.342 2.38 78.215 11.222 14.964 6.972 20.574 11.561 25.845 21.255 2.38 4.589 12.243 29.417 21.764 55.092 79.747 215.263 176.495 412.842 309.122 631.677 53.73 88.587 124.294 195.879 140.109 213.223 12.582 13.771 18.533 25.845 18.873 37.918 0.17 15.642-6.46 23.635-25.675 30.776-7.992 2.891-14.283 3.569-35.196 3.911-13.944 0.17-32.477-0.339-40.978-1.020z" />
<glyph unicode="&#xe902;" glyph-name="tv-fill" horiz-adv-x="1281" d="M72.271 854.791c-33.833-9.009-60.259-36.035-69.268-70.269-4.604-17.217-4.604-668.653 0-685.87 9.009-34.634 35.635-61.46 70.068-70.469 10.41-2.603 45.044-3.003 273.667-3.003h261.856v-82.080l-70.269-0.4-70.469-0.601-4.004-5.405c-3.203-4.204-4.404-9.609-5.005-22.622l-1.001-17.017h-191.787l-4.805-5.005c-4.805-4.604-5.005-6.206-5.005-27.026s0.2-22.422 5.005-27.026l4.805-5.005h749.132l4.805 5.005c4.805 4.604 5.005 6.206 5.005 27.026s-0.2 22.422-5.005 27.026l-4.805 5.005h-191.787l-1.001 17.017c-0.601 13.013-1.802 18.418-5.005 22.622l-4.004 5.405-70.469 0.601-70.269 0.4v82.080h261.856c228.623 0 263.257 0.4 273.667 3.003 34.434 9.009 61.060 35.835 70.068 70.469 4.604 17.217 4.604 668.653 0 685.87-9.009 34.634-35.635 61.46-70.068 70.469-10.61 2.603-74.873 3.003-568.555 2.803-479.468 0-557.945-0.4-567.354-3.003z" />
<glyph unicode="&#xe903;" glyph-name="warranty-shield" d="M427.114 831.706c-6.828-5.376-18.667-13.471-28.575-19.513-89.712-54.612-182.324-87.295-283.454-99.982-15.224-1.934-28.395-3.021-54.612-4.59-11.417-0.666-21.808-1.449-23.078-1.753-3.503-0.786-5.255-2.174-5.921-4.713-0.846-2.961-0.846-198.816-0.060-234.581 1.449-63.009 5.557-101.673 15.766-148.191 19.393-88.262 53.103-167.826 102.64-242.011 38.36-57.392 83.973-108.38 135.203-150.969 40.476-33.71 85.422-63.132 136.954-89.53 17.399-8.942 15.586-8.942 33.951 0.241 44.342 22.293 88.867 50.808 127.348 81.618 88.322 70.803 160.938 166.435 205.825 271.25 25.976 60.473 44.161 127.288 51.835 189.996 1.388 11.417 3.626 36.912 3.626 41.381v3.021l-121.972-121.972-1.268-4.289c-28.213-96.056-79.986-183.713-150.608-255.181-36.852-37.213-72.736-65.367-118.347-92.793l-13.291-8.035-6.767 3.927c-33.53 19.573-65.788 42.712-94.909 68.144-11.78 10.33-39.086 37.395-49.356 48.935-69.171 77.932-113.756 162.025-138.464 260.98-10.936 43.86-15.525 79.442-17.278 134.115-0.726 23.199-0.786 155.562-0.060 155.562 1.087 0 21.748 3.081 30.569 4.59 92.129 15.525 181.719 47.603 263.397 94.364 6.644 3.807 12.384 6.948 12.685 6.948 0.361 0 5.376-2.72 11.177-6.042 16.492-9.424 27.368-15.164 47.182-24.889 47.847-23.501 94.364-40.839 147.346-55.036l13.592-3.626 39.571 39.449c21.748 21.748 41.321 40.96 43.435 42.773l3.807 3.322-5.015 0.786c-53.705 7.975-112.789 24.949-164.865 47.182-45.793 19.633-100.827 50.203-125.113 69.535l-5.255 4.168-5.921-0.060h-5.981l-5.74-4.53zM902.859 716.622c-10.571-1.388-20.42-4.713-27.488-9.243-3.686-2.415-25.374-18.546-34.858-25.976-3.021-2.355-36.912-29.422-42.107-33.59-11.116-8.882-57.452-48.51-60.171-51.35-0.181-0.181-2.72-2.476-5.74-5.135-52.982-47.001-116.958-110.615-173.988-173.081-14.077-15.465-13.471-14.8-25.615-28.395-13.231-14.861-17.459-19.633-20.058-22.654-1.147-1.328-2.174-2.536-2.355-2.72s-3.747-4.228-7.855-9.062c-4.168-4.834-7.671-8.882-7.855-9.062-0.241-0.181-2.659-3.021-5.436-6.343-2.84-3.322-6.888-8.096-9.062-10.571-5.015-5.801-6.222-7.249-19.212-22.775-5.861-7.008-10.875-12.625-11.056-12.384-0.241 0.241-4.469 10.753-9.484 23.38-30.75 77.63-53.645 134.597-55.217 137.558-3.503 6.523-12.204 13.896-21.266 18.004-25.735 11.538-66.996 10.511-92.49-2.235-8.517-4.289-15.405-9.969-19.091-15.706-3.747-5.981-5.195-14.923-3.442-21.808 0.666-2.78 8.638-23.016 55.097-139.672 12.384-31.051 29.964-75.091 38.966-97.867 9.062-22.775 17.278-42.773 18.305-44.522 7.129-11.842 22.895-20.54 44.584-24.467 9.484-1.693 28.090-1.813 37.758-0.241 18.727 3.021 32.382 8.698 41.2 17.158 1.388 1.328 5.557 6.282 9.303 11.056 19.212 24.528 46.76 58.901 65.969 82.341 4.048 4.954 8.035 9.848 8.882 10.875 14.258 17.881 76.543 90.861 91.283 106.989 1.208 1.328 6.102 6.767 10.875 12.143 4.774 5.316 12.746 14.137 17.76 19.633 4.954 5.436 9.303 10.21 9.665 10.571 0.301 0.361 2.78 2.961 5.376 5.74 2.659 2.78 6.828 7.249 9.363 9.909 14.8 15.766 31.295 32.804 50.203 51.711 23.862 23.862 40.354 39.872 58.539 56.726 4.168 3.807 9.303 8.577 11.478 10.631 2.174 1.994 5.376 4.834 7.008 6.343 1.693 1.449 3.141 2.78 3.322 2.961s5.195 4.653 11.237 9.969c37.395 33.105 68.869 58.84 108.38 88.624 20.359 15.345 25.856 21.085 28.696 29.903 1.632 5.015 1.087 11.598-1.388 16.613-8.517 17.278-42.227 30.93-75.757 30.629-4.409-0.060-9.909-0.361-12.264-0.605z" />
<glyph unicode="&#xe904;" glyph-name="sort-arrow" horiz-adv-x="807" d="M367.644 18.355c0 15.166-12.25 27.465-27.374 27.483h-100.483v769.502c0 20.238-16.359 36.643-36.54 36.643h-36.54c-20.181 0-36.54-16.406-36.54-36.643v-769.502h-100.483c-15.15 0-27.419-12.304-27.419-27.483 0-7.018 2.678-13.769 7.482-18.87l155.292-164.893c5.176-5.49 12.379-8.601 19.913-8.601s14.737 3.111 19.913 8.601l155.292 164.893c4.806 5.102 7.482 11.854 7.482 18.87zM806.136 659.606c0 7.018-2.678 13.769-7.482 18.87l-155.292 164.893c-5.176 5.49-12.379 8.601-19.913 8.601s-14.737-3.111-19.913-8.601l-155.292-164.893c-4.806-5.102-7.482-11.854-7.482-18.87 0-15.175 12.264-27.478 27.397-27.483h100.483v-769.502c0-20.238 16.359-36.643 36.54-36.643h36.54c20.181 0 36.54 16.406 36.54 36.643v769.502h100.483c15.132 0.005 27.397 12.307 27.397 27.483z" />
<glyph unicode="&#xe905;" glyph-name="star-half" horiz-adv-x="1152" d="M554.6 860.4c-13-4.6-23-12.2-30.2-23-3-4.6-34.8-67.6-70.6-140.2-44.8-91.2-66-132.2-68.8-133.4-2.2-0.8-70.2-11.2-151-22.8-161.4-23.4-160.4-23-174.8-39-13.2-14.6-16.2-22.8-16.2-44 0-16 0.8-20.6 4.8-28.6 3.6-7.4 30-34.2 114.4-116.8 89.8-87.6 109.6-107.8 108.8-111.4-5.2-22.8-49.4-288.8-49.6-297.2-0.2-33 25.8-61 59-63.4 7.8-0.6 16 0.2 21.6 2 5 1.4 68.4 34 140.8 72 72.6 38.2 132.6 69.4 133.4 69.4s61.2-31.4 134.4-70c73.2-38.4 137.2-70.8 142.4-72.2 38.2-9.6 78 22.2 77.6 62.2-0.2 8.2-44.4 273.4-49.6 297.2-0.8 3.6 19.4 24 108.8 111.4 84.6 82.6 110.8 109.4 114.4 116.8 4 8 4.8 12.6 4.8 28.6 0 21.2-3 29.4-16.2 44-14.6 16-13.2 15.8-173.8 39-80.2 11.6-148 21.6-150.6 22.2-3.8 0.8-14 19.8-60.8 114.4-30.8 62.4-61 123.6-67 136.2-12.2 25.4-21.8 36.6-37.4 44-13.8 6.4-34.8 7.6-48.6 2.6zM639 600c32.8-66.6 60.2-121.8 61-122.6 0.8-1 63-10.6 138.2-21.6 75.2-10.8 137.4-20 138.4-20.4 0.8-0.2-43.4-44-98-97.4-54.8-53.2-99.8-98.2-100.2-100-0.2-1.6 9.8-63.6 22.6-137.8 12.8-74 22.8-135.2 22.2-135.6-0.4-0.4-55.6 28-122.4 63.2l-121.8 64-0.6 315.4c-0.2 173.6 0 315.2 0.4 314.6 0.4-0.4 27.6-55.2 60.2-121.8z" />
<glyph unicode="&#xe906;" glyph-name="star-regular" horiz-adv-x="1152" d="M1056.2 521l-292.2 42.6-130.6 264.8c-23.4 47.2-91.2 47.8-114.8 0l-130.6-264.8-292.2-42.6c-52.4-7.6-73.4-72.2-35.4-109.2l211.4-206-50-291c-9-52.6 46.4-92 92.8-67.4l261.4 137.4 261.4-137.4c46.4-24.4 101.8 14.8 92.8 67.4l-50 291 211.4 206c38 37 17 101.6-35.4 109.2zM777.2 239.4l47.4-276.8-248.6 130.6-248.6-130.6 47.4 276.8-201.2 196 278 40.4 124.4 252 124.4-252 278-40.4-201.2-196z" />
<glyph unicode="&#xf000;" glyph-name="tjc" horiz-adv-x="1086" d="M198.212 845.964h-66.755v-180.753h-131.456v-61.62h131.456v-441.612c0 0-7.189-244.427 255.724-148.915l-12.324 58.539c0 0-175.618-80.106-175.618 91.403s0 440.585 0 440.585h226.968l1.027-590.529c0 0-1.027-5.135 0-14.378 0-40.053-15.405-142.753-150.969-106.808l-12.324-61.62c0 0 230.049-80.106 230.049 182.807s0 590.529 0 590.529h351.236v61.62h-645.987v180.753zM1038.303 129.114c0 0-63.674-75.998-182.807-75.998-111.943 0-263.941 85.241-263.941 275.238v0c0 188.969 151.996 275.238 263.941 275.238 119.132 0 182.807-75.998 182.807-75.998l48.269 44.161c0 0-70.863 93.457-231.076 93.457-142.753 0-330.696-93.457-330.696-336.858v0c0 0 0 0 0 0s0 0 0 0v0c0-243.4 187.942-336.858 330.696-336.858 160.212 0 231.076 93.457 231.076 93.457l-48.269 44.161z" />
<glyph unicode="&#xf002;" glyph-name="search" d="M1019.817-120.448l-258.805 258.805c-4.108 5.135-10.27 7.189-16.432 7.189h-20.54c68.809 74.971 110.916 173.563 110.916 283.454 0 230.049-186.915 416.964-417.991 416.964s-416.964-186.915-416.964-416.964 186.915-416.964 416.964-416.964c109.889 0 208.482 42.107 283.454 109.889v-20.54c0-6.162 2.054-12.324 7.189-16.432l258.805-258.805c9.243-9.243 24.648-9.243 33.891 0l19.513 19.513c9.243 9.243 9.243 24.648 0 33.891zM416.964 75.71c-195.131 0-352.263 158.158-352.263 353.29s157.131 353.29 352.263 353.29 353.29-158.158 353.29-353.29-158.158-353.29-353.29-353.29z" />
<glyph unicode="&#xf004;" glyph-name="heart" d="M927.387 720.67c-108.862 92.43-273.184 77.025-373.83-27.729l-40.053-41.080-39.026 41.080c-82.16 84.214-247.508 135.564-374.857 27.729-126.321-107.835-132.483-300.913-19.513-416.964l388.208-401.559c12.324-12.324 28.756-19.513 45.188-19.513s32.864 7.189 45.188 19.513l388.208 401.559c112.97 116.051 106.808 309.129-19.513 416.964zM900.685 347.867l-386.154-400.532-388.208 400.532c-77.025 79.079-93.457 231.076 15.405 323.507 109.889 93.457 239.292 25.675 286.535-23.621l85.241-88.322 85.241 88.322c47.242 48.269 177.672 117.078 286.535 23.621 108.862-92.43 92.43-243.4 15.405-323.507z" />
<glyph unicode="&#xf005;" glyph-name="star" horiz-adv-x="1155" d="M519.664 810.019l-130.429-264.968-292.697-43.134c-53.404-7.189-73.944-71.89-35.945-109.889l211.563-206.428-49.296-291.67c-9.243-52.377 46.215-92.43 92.43-67.782l262.914 137.618 261.886-137.618c46.215-24.648 101.673 15.405 92.43 67.782l-49.296 291.67 211.563 206.428c37.999 37.999 17.459 102.7-35.945 109.889l-292.697 43.134-130.429 264.968c-23.621 47.242-91.403 48.269-116.051 0z" />
<glyph unicode="&#xf007;" glyph-name="user" horiz-adv-x="899" d="M629.555 268.788c-58.539 0-85.241-32.864-179.726-32.864s-122.213 32.864-179.726 32.864c-148.915 0-270.103-121.186-270.103-270.103v-83.187c0-53.404 43.134-96.538 96.538-96.538h705.553c53.404 0 96.538 43.134 96.538 96.538v83.187c0 148.915-121.186 270.103-269.076 270.103zM834.956-84.503c0-17.459-15.405-32.864-32.864-32.864h-705.553c-17.459 0-31.837 15.405-31.837 32.864v83.187c0 112.97 91.403 205.401 205.401 205.401 39.026 0 78.052-31.837 179.726-31.837 100.646 0 139.672 31.837 179.726 31.837 112.97 0 205.401-92.43 205.401-205.401v-83.187zM449.828 332.462c141.726 0 256.751 115.024 256.751 256.751s-115.024 256.751-256.751 256.751-256.751-115.024-256.751-256.751 113.997-256.751 256.751-256.751zM449.828 782.29c105.781 0 192.050-87.295 192.050-193.077s-86.268-192.050-192.050-192.050-193.077 86.268-193.077 192.050 86.268 193.077 193.077 193.077z" />
<glyph unicode="&#xf00c;" glyph-name="check" horiz-adv-x="899" d="M829.821 661.104l-561.773-560.746-199.239 198.212c-9.243 9.243-24.648 9.243-33.891 0l-22.594-22.594c-9.243-9.243-9.243-24.648 0-33.891l238.265-238.265c9.243-10.27 24.648-10.27 33.891 0l601.826 600.799c9.243 9.243 9.243 24.648 0 33.891l-22.594 22.594c-9.243 10.27-24.648 10.27-33.891 0z" />
<glyph unicode="&#xf00d;" glyph-name="times" horiz-adv-x="643" d="M389.235 332.462l205.401 205.401 42.107 43.134c7.189 6.162 7.189 16.432 0 22.594l-45.188 45.188c-6.162 6.162-16.432 6.162-22.594 0l-247.508-248.535-248.535 248.535c-6.162 6.162-16.432 6.162-22.594 0l-45.188-45.188c-7.189-6.162-7.189-16.432 0-22.594l247.508-248.535-247.508-248.535c-7.189-6.162-7.189-16.432 0-22.594l45.188-45.188c6.162-6.162 16.432-6.162 22.594 0l248.535 248.535 247.508-248.535c6.162-6.162 16.432-6.162 22.594 0l45.188 45.188c7.189 6.162 7.189 16.432 0 22.594l-247.508 248.535z" />
<glyph unicode="&#xf00e;" glyph-name="search-plus" d="M641.879 437.216v-16.432c0-13.351-11.297-23.621-24.648-23.621h-168.428v-169.455c0-12.324-10.27-23.621-23.621-23.621h-16.432c-13.351 0-23.621 11.297-23.621 23.621v169.455h-168.428c-13.351 0-24.648 10.27-24.648 23.621v16.432c0 13.351 11.297 23.621 24.648 23.621h168.428v168.428c0 13.351 10.27 24.648 23.621 24.648h16.432c13.351 0 23.621-11.297 23.621-24.648v-168.428h168.428c13.351 0 24.648-10.27 24.648-23.621zM1019.817-151.258l-22.594-22.594c-9.243-9.243-24.648-9.243-33.891 0l-258.805 258.805c-5.135 5.135-7.189 11.297-7.189 17.459v16.432c-73.944-66.755-172.536-106.808-280.373-106.808-229.022 0-413.883 181.78-416.964 411.829-3.081 234.157 187.942 425.18 423.126 422.099 229.022-3.081 411.829-187.942 411.829-416.964 0-107.835-41.080-206.428-107.835-280.373h16.432c7.189 0 12.324-2.054 17.459-6.162l258.805-259.832c9.243-9.243 9.243-24.648 0-33.891zM770.254 429c0 195.131-158.158 353.29-353.29 353.29s-352.263-158.158-352.263-353.29 157.131-353.29 352.263-353.29 353.29 158.158 353.29 353.29z" />
<glyph unicode="&#xf015;" glyph-name="home" horiz-adv-x="1155" d="M562.8 548.134l-369.722-303.994v-328.642c-0.011-0.305-0.017-0.667-0.017-1.027 0-17.583 14.254-31.837 31.837-31.837 0.006 0 0.012 0 0.017 0h-0.001l224.914 1.027c17.583 0 31.837 14.254 31.837 31.837v0 192.050c-0.011 0.305-0.017 0.667-0.017 1.027 0 17.583 14.254 31.837 31.837 31.837 0.006 0 0.012 0 0.017 0h128.374c0.005 0 0.011 0 0.017 0 17.583 0 31.837-14.254 31.837-31.837 0-0.36-0.006-0.722-0.018-1.079l0.001 0.052v-192.050c0-0.005 0-0.011 0-0.017 0-17.583 14.254-31.837 31.837-31.837 0.36 0 0.722 0.006 1.079 0.018l-0.052-0.001 223.887-1.027c0.31-0.011 0.678-0.017 1.044-0.017 17.583 0 31.837 14.254 31.837 31.837 0 0.366-0.006 0.734-0.018 1.097l0.001-0.053v328.642l-369.722 303.994c-4.179 3.368-9.553 5.406-15.405 5.406s-11.226-2.039-15.452-5.443l0.047 0.037zM1146.138 341.705l-167.401 137.618v278.319c0 13.046-10.575 23.621-23.621 23.621v0h-112.97c-13.046 0-23.621-10.575-23.621-23.621v0-145.834l-179.726 147.888c-16.501 13.572-37.843 21.801-61.108 21.801s-44.607-8.229-61.275-21.934l0.167 0.133-507.34-417.991c-5.774-4.354-9.466-11.201-9.466-18.909 0-5.707 2.023-10.94 5.39-15.022l-0.032 0.040 51.35-62.647c4.364-5.411 10.997-8.846 18.429-8.846 5.928 0 11.344 2.182 15.491 5.79l-0.029-0.024 472.422 389.235c4.179 3.368 9.553 5.406 15.405 5.406s11.226-2.039 15.452-5.443l-0.047 0.037 471.395-389.235c4.118-3.58 9.534-5.765 15.462-5.765 7.432 0 14.065 3.432 18.394 8.801l0.035 0.045 51.35 62.647c3.335 4.042 5.358 9.275 5.358 14.982 0 7.711-3.694 14.555-9.406 18.866l-0.060 0.043z" />
<glyph unicode="&#xf028;" glyph-name="volume-up" horiz-adv-x="1155" d="M431.342 703.211l-178.699-177.672h-204.374c-26.702 0-48.269-21.567-48.269-48.269v-289.616c0-25.675 21.567-47.242 48.269-47.242h204.374l178.699-178.699c29.783-30.81 82.16-9.243 82.16 33.891v673.716c0 43.134-52.377 64.701-82.16 33.891zM899.658 805.911c-22.594 14.378-52.377 8.216-67.782-14.378-14.378-21.567-8.216-52.377 14.378-66.755 132.483-87.295 212.59-234.157 212.59-392.316s-80.106-305.021-212.59-392.316c-22.594-14.378-28.756-45.188-14.378-66.755s44.161-29.783 67.782-14.378c160.212 104.754 255.724 282.427 255.724 473.449s-95.511 368.695-255.724 473.449zM963.332 332.462c0 127.348-64.701 244.427-172.536 313.237-22.594 14.378-52.377 8.216-66.755-14.378s-7.189-53.404 15.405-67.782c79.079-50.323 127.348-136.591 127.348-231.076s-48.269-180.753-127.348-231.076c-22.594-14.378-29.783-44.161-15.405-67.782 13.351-20.54 43.134-29.783 66.755-14.378 107.835 68.809 172.536 185.888 172.536 313.237zM678.851 486.513c-23.621 13.351-52.377 4.108-65.728-18.486-13.351-23.621-4.108-52.377 18.486-65.728 26.702-14.378 42.107-41.080 42.107-69.836s-15.405-55.458-42.107-69.836c-22.594-12.324-30.81-42.107-18.486-65.728 13.351-22.594 42.107-30.81 65.728-18.486 56.485 30.81 91.403 90.376 91.403 154.050s-34.918 123.24-91.403 154.050z" />
<glyph unicode="&#xf02b;" glyph-name="tag" d="M0 340.678v408.748c0 53.404 43.134 96.538 96.538 96.538h408.748c0.323 0.004 0.708 0.006 1.091 0.006 26.389 0 50.304-10.587 67.731-27.747l425.168-425.168c36.972-37.999 36.972-98.592 0-136.591l-409.775-409.775c-37.999-36.972-98.592-36.972-136.591 0l-424.153 425.18c-17.756 17.516-28.756 41.844-28.756 68.74 0 0.024 0 0.048 0 0.072v-0.004zM224.914 717.589c-53.404 0-96.538-43.134-96.538-96.538s43.134-95.511 96.538-95.511 96.538 43.134 96.538 95.511-43.134 96.538-96.538 96.538z" />
<glyph unicode="&#xf04b;" glyph-name="play" horiz-adv-x="899" d="M851.388 415.649l-706.58 416.964c-56.485 33.891-144.807 1.027-144.807-83.187v-833.929c0-75.998 82.16-121.186 144.807-83.187l706.58 416.964c62.647 37.999 62.647 129.402 0 166.374z" />
<glyph unicode="&#xf04c;" glyph-name="pause" d="M866.793 823.37v-981.818c0-12.324-10.27-22.594-22.594-22.594h-182.807c-12.324 0-22.594 10.27-22.594 22.594v981.818c0 12.324 10.27 22.594 22.594 22.594h182.807c12.324 0 22.594-10.27 22.594-22.594zM365.614 845.964h-182.807c-12.324 0-22.594-10.27-22.594-22.594v-981.818c0-12.324 10.27-22.594 22.594-22.594h182.807c12.324 0 22.594 10.27 22.594 22.594v981.818c0 12.324-10.27 22.594-22.594 22.594z" />
<glyph unicode="&#xf053;" glyph-name="chevron-left" horiz-adv-x="515" d="M478.584-108.124l14.378 14.378c9.243 9.243 9.243 24.648 0 33.891l-392.316 392.316 392.316 392.316c9.243 9.243 9.243 24.648 0 33.891l-14.378 14.378c-9.243 9.243-24.648 9.243-33.891 0l-424.153-423.126c-9.243-10.27-9.243-24.648 0-34.918l424.153-423.126c9.243-9.243 24.648-9.243 33.891 0z" />
<glyph unicode="&#xf054;" glyph-name="chevron-right" horiz-adv-x="515" d="M34.918 773.047l-14.378-14.378c-9.243-9.243-9.243-24.648 0-33.891l392.316-392.316-392.316-392.316c-9.243-9.243-9.243-24.648 0-33.891l14.378-14.378c9.243-9.243 24.648-9.243 33.891 0l424.153 423.126c9.243 10.27 9.243 24.648 0 34.918l-424.153 423.126c-9.243 9.243-24.648 9.243-33.891 0z" />
<glyph unicode="&#xf057;" glyph-name="times-circle" d="M513.502 829.532c-275.238 0-497.070-221.833-497.070-497.070s221.833-497.070 497.070-497.070 497.070 221.833 497.070 497.070-221.833 497.070-497.070 497.070zM513.502-100.935c-238.265 0-433.396 193.077-433.396 433.396 0 238.265 193.077 433.396 433.396 433.396 238.265 0 433.396-193.077 433.396-433.396 0-238.265-193.077-433.396-433.396-433.396zM703.499 471.108l-138.645-138.645 138.645-138.645c9.243-9.243 9.243-24.648 0-34.918l-16.432-16.432c-10.27-9.243-24.648-9.243-34.918 0l-138.645 138.645-138.645-138.645c-9.243-9.243-24.648-9.243-34.918 0l-16.432 16.432c-9.243 10.27-9.243 25.675 0 34.918l138.645 138.645-138.645 138.645c-9.243 10.27-9.243 24.648 0 34.918l16.432 16.432c10.27 9.243 25.675 9.243 34.918 0l138.645-138.645 138.645 138.645c10.27 9.243 24.648 9.243 34.918 0l16.432-16.432c9.243-10.27 9.243-24.648 0-34.918z" />
<glyph unicode="&#xf058;" glyph-name="check-circle" d="M513.502 829.532c-274.211 0-497.070-221.833-497.070-497.070s222.86-497.070 497.070-497.070 497.070 222.86 497.070 497.070-221.833 497.070-497.070 497.070zM513.502-100.935c-238.265 0-433.396 193.077-433.396 433.396 0 238.265 193.077 433.396 433.396 433.396 238.265 0 433.396-193.077 433.396-433.396 0-238.265-193.077-433.396-433.396-433.396zM797.984 450.568l-362.533-358.425c-9.243-10.27-24.648-10.27-33.891 0l-172.536 173.563c-9.243 9.243-9.243 24.648 0 33.891l17.459 16.432c9.243 10.27 24.648 9.243 33.891 0l138.645-139.672 327.615 325.561c9.243 9.243 24.648 9.243 33.891 0l17.459-17.459c9.243-9.243 9.243-24.648 0-33.891z" />
<glyph unicode="&#xf059;" glyph-name="question-circle" d="M513.502 164.032c-30.81 0-56.485-24.648-56.485-56.485s25.675-55.458 56.485-55.458 56.485 24.648 56.485 55.458-25.675 56.485-56.485 56.485zM528.909 212.303h-31.837c-13.351 0-24.648 10.27-24.648 23.621v1.027c0 140.699 156.104 127.348 156.104 215.671 0 40.053-35.945 80.106-116.051 80.106-58.539 0-88.322-18.486-118.105-57.512-8.216-9.243-22.594-11.297-32.864-4.108l-26.702 18.486c-11.297 7.189-13.351 23.621-5.135 33.891 43.134 54.431 93.457 89.349 182.807 89.349 105.781 0 196.158-59.566 196.158-160.212 0-135.564-156.104-128.375-156.104-215.671v-1.027c0-13.351-10.27-23.621-23.621-23.621zM513.502 765.858c238.265 0 433.396-193.077 433.396-433.396 0-239.292-194.104-433.396-433.396-433.396s-433.396 194.104-433.396 433.396c0 239.292 194.104 433.396 433.396 433.396M513.502 829.532c-274.211 0-497.070-222.86-497.070-497.070 0-275.238 222.86-497.070 497.070-497.070s497.070 221.833 497.070 497.070c0 274.211-221.833 497.070-497.070 497.070z" />
<glyph unicode="&#xf067;" glyph-name="plus" horiz-adv-x="771" d="M753.822 380.731h-320.426v320.426c0 9.243-7.189 16.432-16.432 16.432h-63.674c-9.243 0-16.432-7.189-16.432-16.432v-320.426h-320.426c-9.243 0-16.432-7.189-16.432-16.432v-63.674c0-9.243 7.189-16.432 16.432-16.432h320.426v-320.426c0-9.243 7.189-16.432 16.432-16.432h63.674c9.243 0 16.432 7.189 16.432 16.432v320.426h320.426c9.243 0 16.432 7.189 16.432 16.432v63.674c0 9.243-7.189 16.432-16.432 16.432z" />
<glyph unicode="&#xf068;" glyph-name="minus" horiz-adv-x="771" d="M753.822 380.731h-737.39c-9.243 0-16.432-7.189-16.432-16.432v-63.674c0-9.243 7.189-16.432 16.432-16.432h737.39c9.243 0 16.432 7.189 16.432 16.432v63.674c0 9.243-7.189 16.432-16.432 16.432z" />
<glyph unicode="&#xf06e;" glyph-name="eye" horiz-adv-x="1155" d="M578.205 557.377c-22.517-0.453-44.003-4.176-64.226-10.709l1.579 0.439c9.014-15.652 14.344-34.417 14.378-54.421v-0.010c0-0.001 0-0.003 0-0.005 0-61.824-50.119-111.943-111.943-111.943-0.36 0-0.723 0.002-1.082 0.005h0.055c-19.664 0.223-38.043 5.529-53.945 14.663l0.541-0.285c-5.487-18.46-8.645-39.672-8.645-61.619 0-123.651 100.238-223.887 223.887-223.887s223.887 100.238 223.887 223.887c0 123.651-100.238 223.887-223.887 223.887-0.209 0-0.418 0-0.63-0.001h0.032zM1148.192 362.245c-108.862 211.563-323.507 355.344-569.989 355.344s-462.152-143.78-571.016-355.344c-4.411-8.515-7-18.59-7-29.271s2.589-20.753 7.169-29.632l-0.169 0.361c108.862-212.59 323.507-356.371 571.016-356.371s461.125 143.78 569.989 356.371c4.411 8.515 7 18.59 7 29.271s-2.589 20.753-7.169 29.632l0.169-0.361zM578.205 43.873c-198.212 0-379.992 109.889-477.557 288.589 97.565 178.699 279.346 288.589 477.557 288.589s378.965-109.889 476.53-288.589c-97.565-178.699-279.346-288.589-476.53-288.589z" />
<glyph unicode="&#xf070;" glyph-name="eye-slash" horiz-adv-x="1283" d="M1271.433-98.881l-1199.542 937.657c-5.428 4.438-12.439 7.13-20.079 7.13-10.172 0-19.23-4.771-25.057-12.196l-0.052-0.069-19.513-24.648c-4.438-5.428-7.13-12.439-7.13-20.079 0-10.172 4.771-19.23 12.196-25.057l0.069-0.052 1199.542-937.657c5.428-4.438 12.439-7.13 20.079-7.13 10.172 0 19.23 4.771 25.057 12.196l0.052 0.069 19.513 24.648c4.438 5.428 7.13 12.439 7.13 20.079 0 10.172-4.771 19.23-12.196 25.057l-0.069 0.052zM595.664 552.242l270.103-211.563c-4.108 120.159-102.7 216.698-223.887 216.698-16.436-0.12-32.373-1.985-47.716-5.416l1.498 0.281zM688.094 112.682l-270.103 211.563c4.108-120.159 102.7-216.698 223.887-216.698 16.444 0.136 32.379 2 47.727 5.417l-1.509-0.282zM641.879 621.051c198.212 0 378.965-109.889 477.557-288.589-25.396-46.155-54.714-85.951-88.537-121.414l0.215 0.227 75.998-58.539c40.726 43.686 75.938 93.321 104.023 147.262l1.759 3.71c4.411 8.515 7 18.59 7 29.271s-2.589 20.753-7.169 29.632l0.169-0.361c-108.862 211.563-324.534 355.344-571.016 355.344-73.944 0-143.78-14.378-209.509-37.999l92.43-72.917c37.999 9.243 77.025 14.378 117.078 14.378zM641.879 43.873c-198.212 0-378.965 109.889-477.557 288.589 25.396 46.155 54.714 85.951 88.537 121.414l-0.215-0.227-74.971 58.539c-41.066-43.405-76.596-92.697-105.052-146.316l-1.757-3.629c-4.411-8.515-7-18.59-7-29.271s2.589-20.753 7.169-29.632l-0.169 0.361c108.862-212.59 324.534-356.371 571.016-356.371 73.944 0 143.78 14.378 209.509 37.999l-92.43 72.917c-37.999-9.243-77.025-14.378-117.078-14.378z" />
<glyph unicode="&#xf075;" glyph-name="comment" d="M513.502 782.29c-283.454 0-513.502-186.915-513.502-417.991 0-99.619 43.134-189.996 113.997-261.886-24.648-100.646-108.862-191.023-109.889-192.050-4.108-5.135-5.135-11.297-3.081-17.459s8.216-10.27 15.405-10.27c132.483 0 232.103 64.701 281.4 103.727 65.728-24.648 138.645-39.026 215.671-39.026 283.454 0 513.502 186.915 513.502 416.964s-230.049 417.991-513.502 417.991z" />
<glyph unicode="&#xf077;" glyph-name="chevron-up" horiz-adv-x="899" d="M9.243 110.628l14.378-14.378c9.243-9.243 24.648-9.243 33.891 0l392.316 392.316 391.289-392.316c10.27-9.243 24.648-9.243 34.918 0l13.351 14.378c9.243 9.243 9.243 24.648 0 33.891l-423.126 424.153c-9.243 9.243-24.648 9.243-33.891 0l-423.126-424.153c-9.243-9.243-9.243-24.648 0-33.891z" />
<glyph unicode="&#xf078;" glyph-name="chevron-down" horiz-adv-x="899" d="M889.388 519.377l-14.378 14.378c-9.243 10.27-24.648 10.27-33.891 0l-391.289-391.289-392.316 391.289c-9.243 10.27-24.648 10.27-33.891 0l-14.378-14.378c-10.27-9.243-10.27-24.648 0-33.891l423.126-423.126c9.243-9.243 24.648-9.243 33.891 0l423.126 423.126c9.243 9.243 9.243 24.648 0 33.891z" />
<glyph unicode="&#xf099;" glyph-name="twitter" d="M921.225 541.972c1.027-9.243 1.027-18.486 1.027-27.729 0-278.319-211.563-598.745-598.745-598.745-119.132 0-230.049 33.891-323.507 94.484 17.459-2.054 32.864-3.081 51.35-3.081 97.565 0 188.969 33.891 260.859 90.376-92.43 2.054-170.482 62.647-197.185 145.834 13.351-2.054 26.702-3.081 40.053-3.081 18.486 0 37.999 2.054 55.458 7.189-96.538 19.513-168.428 103.727-168.428 206.428v3.081c27.729-16.432 60.593-25.675 94.484-26.702-56.485 36.972-93.457 101.673-93.457 174.59 0 39.026 10.27 74.971 28.756 106.808 103.727-128.375 258.805-211.563 433.396-220.806-3.081 15.405-5.135 31.837-5.135 48.269 0 116.051 94.484 210.536 210.536 210.536 60.593 0 116.051-25.675 154.050-66.755 47.242 9.243 93.457 26.702 133.51 51.35-15.405-49.296-48.269-90.376-92.43-116.051 42.107 4.108 83.187 16.432 121.186 32.864-28.756-42.107-64.701-79.079-105.781-108.862z" />
<glyph unicode="&#xf09d;" glyph-name="credit-card" horiz-adv-x="1155" d="M1058.843 782.29h-962.305c-53.404 0-96.538-43.134-96.538-96.538v-706.58c0-53.404 43.134-96.538 96.538-96.538h962.305c53.404 0 96.538 43.134 96.538 96.538v706.58c0 53.404-43.134 96.538-96.538 96.538zM96.538 717.589h962.305c17.459 0 32.864-14.378 32.864-31.837v-96.538h-1027.006v96.538c0 17.459 14.378 31.837 31.837 31.837zM1058.843-52.665h-962.305c-17.459 0-31.837 14.378-31.837 31.837v417.991h1027.006v-417.991c0-17.459-15.405-31.837-32.864-31.837zM385.127 115.763v-16.432c0-12.324-10.27-23.621-23.621-23.621h-144.807c-13.351 0-23.621 11.297-23.621 23.621v16.432c0 13.351 10.27 24.648 23.621 24.648h144.807c13.351 0 23.621-11.297 23.621-24.648zM770.254 115.763v-16.432c0-12.324-10.27-23.621-23.621-23.621h-273.184c-13.351 0-23.621 11.297-23.621 23.621v16.432c0 13.351 10.27 24.648 23.621 24.648h273.184c13.351 0 23.621-11.297 23.621-24.648z" />
<glyph unicode="&#xf0c9;" glyph-name="bars" horiz-adv-x="899" d="M886.307 616.943h-873.982c-6.807 0-12.324 5.517-12.324 12.324v0 48.269c0 6.807 5.517 12.324 12.324 12.324v0h873.982c6.807 0 12.324-5.517 12.324-12.324v0-48.269c0-6.807-5.517-12.324-12.324-12.324v0zM886.307 296.517h-873.982c-6.807 0-12.324 5.517-12.324 12.324v0 47.242c0 6.807 5.517 12.324 12.324 12.324v0h873.982c6.807 0 12.324-5.517 12.324-12.324v0-47.242c0-6.807-5.517-12.324-12.324-12.324v0zM886.307-24.936h-873.982c-6.807 0-12.324 5.517-12.324 12.324v0 48.269c0 6.807 5.517 12.324 12.324 12.324v0h873.982c6.807 0 12.324-5.517 12.324-12.324v0-48.269c0-6.807-5.517-12.324-12.324-12.324v0z" />
<glyph unicode="&#xf0d7;" glyph-name="caret-down" horiz-adv-x="643" d="M62.647 460.838h516.583c34.918 0 53.404-43.134 27.729-68.809l-257.778-257.778c-15.405-15.405-41.080-15.405-56.485 0l-257.778 257.778c-25.675 25.675-8.216 68.809 27.729 68.809z" />
<glyph unicode="&#xf0d8;" glyph-name="caret-up" horiz-adv-x="643" d="M579.232 140.411h-516.583c-35.945 0-53.404 43.134-27.729 67.782l257.778 258.805c15.405 15.405 41.080 15.405 56.485 0l257.778-258.805c25.675-24.648 8.216-67.782-27.729-67.782z" />
<glyph unicode="&#xf0d9;" glyph-name="caret-left" horiz-adv-x="384" d="M385.127 590.241v-515.556c0-35.945-43.134-53.404-68.809-28.756l-257.778 257.778c-15.405 16.432-15.405 41.080 0 57.512l257.778 257.778c25.675 25.675 68.809 7.189 68.809-28.756z" />
<glyph unicode="&#xf0da;" glyph-name="caret-right" horiz-adv-x="384" d="M0 74.683v515.556c0 35.945 43.134 54.431 68.809 28.756l257.778-257.778c15.405-16.432 15.405-41.080 0-57.512l-257.778-257.778c-25.675-24.648-68.809-7.189-68.809 28.756z" />
<glyph unicode="&#xf0dc;" glyph-name="sort" horiz-adv-x="643" d="M82.16 268.788h477.557c43.134 0 64.701-52.377 33.891-83.187l-238.265-238.265c-19.513-18.486-49.296-18.486-67.782 0l-239.292 238.265c-30.81 30.81-9.243 83.187 33.891 83.187zM593.61 479.324l-238.265 238.265c-19.513 18.486-49.296 18.486-67.782 0l-239.292-238.265c-30.81-30.81-9.243-82.16 33.891-82.16h477.557c43.134 0 64.701 51.35 33.891 82.16z" />
<glyph unicode="&#xf104;" glyph-name="angle-left" horiz-adv-x="384" d="M50.323 349.921l236.211 232.103c9.243 9.243 24.648 9.243 33.891 0l14.378-14.378c9.243-9.243 9.243-24.648 0-33.891l-205.401-201.293 205.401-201.293c9.243-9.243 9.243-24.648 0-33.891l-14.378-14.378c-9.243-9.243-24.648-9.243-33.891 0l-236.211 232.103c-9.243 10.27-9.243 24.648 0 34.918z" />
<glyph unicode="&#xf105;" glyph-name="angle-right" horiz-adv-x="384" d="M334.804 315.003l-236.211-232.103c-9.243-9.243-24.648-9.243-33.891 0l-14.378 14.378c-9.243 9.243-9.243 24.648 0 33.891l205.401 201.293-205.401 201.293c-9.243 9.243-9.243 24.648 0 33.891l14.378 14.378c9.243 9.243 24.648 9.243 33.891 0l236.211-232.103c9.243-10.27 9.243-24.648 0-34.918z" />
<glyph unicode="&#xf106;" glyph-name="angle-up" horiz-adv-x="515" d="M274.211 475.216l232.103-237.238c9.243-9.243 9.243-24.648 0-33.891l-14.378-14.378c-9.243-9.243-24.648-9.243-33.891 0l-201.293 205.401-201.293-204.374c-9.243-10.27-24.648-10.27-33.891 0l-14.378 13.351c-9.243 10.27-9.243 24.648 0 34.918l232.103 236.211c10.27 9.243 24.648 9.243 34.918 0z" />
<glyph unicode="&#xf107;" glyph-name="angle-down" horiz-adv-x="515" d="M239.292 190.736l-232.103 236.211c-9.243 9.243-9.243 24.648 0 33.891l14.378 14.378c9.243 9.243 24.648 9.243 33.891 0l201.293-205.401 201.293 205.401c9.243 9.243 24.648 9.243 33.891 0l14.378-14.378c9.243-10.27 9.243-24.648 0-34.918l-232.103-236.211c-10.27-9.243-24.648-9.243-34.918 1.027z" />
<glyph unicode="&#xf10d;" glyph-name="quote-left" d="M930.468 332.462h-160.212v128.375c0 70.863 57.512 128.375 128.375 128.375h16.432c26.702 0 48.269 21.567 48.269 48.269v96.538c0 26.702-21.567 48.269-48.269 48.269h-16.432c-177.672 0-320.426-143.78-320.426-321.453v-481.665c0-53.404 43.134-96.538 95.511-96.538h256.751c53.404 0 96.538 43.134 96.538 96.538v256.751c0 53.404-43.134 96.538-96.538 96.538zM353.29 332.462h-160.212v128.375c0 70.863 57.512 128.375 128.375 128.375h15.405c26.702 0 48.269 21.567 48.269 48.269v96.538c0 26.702-21.567 48.269-48.269 48.269h-15.405c-177.672 0-321.453-143.78-321.453-321.453v-481.665c0-53.404 43.134-96.538 96.538-96.538h256.751c53.404 0 96.538 43.134 96.538 96.538v256.751c0 53.404-43.134 96.538-96.538 96.538z" />
<glyph unicode="&#xf10e;" glyph-name="quote-right" d="M930.468 782.29h-256.751c-52.377 0-95.511-43.134-95.511-96.538v-256.751c0-53.404 43.134-96.538 95.511-96.538h161.239v-128.375c0-70.863-58.539-128.375-128.375-128.375h-16.432c-26.702 0-48.269-21.567-48.269-48.269v-96.538c0-26.702 21.567-48.269 48.269-48.269h16.432c176.645 0 320.426 143.78 320.426 321.453v481.665c0 53.404-43.134 96.538-96.538 96.538zM353.29 782.29h-256.751c-53.404 0-96.538-43.134-96.538-96.538v-256.751c0-53.404 43.134-96.538 96.538-96.538h160.212v-128.375c0-70.863-57.512-128.375-128.375-128.375h-16.432c-26.702 0-47.242-21.567-47.242-48.269v-96.538c0-26.702 20.54-48.269 47.242-48.269h16.432c177.672 0 321.453 143.78 321.453 321.453v481.665c0 53.404-43.134 96.538-96.538 96.538z" />
<glyph unicode="&#xf110;" glyph-name="spinner" d="M578.205 782.29c0-35.945-28.756-64.701-64.701-64.701s-63.674 28.756-63.674 64.701 28.756 63.674 63.674 63.674 64.701-28.756 64.701-63.674zM513.502-52.665c-34.918 0-63.674-28.756-63.674-64.701s28.756-63.674 63.674-63.674 64.701 28.756 64.701 63.674-28.756 64.701-64.701 64.701zM1027.006 332.462c0 35.945-28.756 64.701-63.674 64.701s-64.701-28.756-64.701-64.701 28.756-63.674 64.701-63.674 63.674 28.756 63.674 63.674zM128.375 332.462c0 35.945-28.756 64.701-63.674 64.701s-64.701-28.756-64.701-64.701 28.756-63.674 64.701-63.674 63.674 28.756 63.674 63.674zM196.158 78.791c-35.945 0-64.701-28.756-64.701-63.674s28.756-64.701 64.701-64.701 63.674 28.756 63.674 64.701-28.756 63.674-63.674 63.674zM830.848 78.791c-34.918 0-63.674-28.756-63.674-63.674s28.756-64.701 63.674-64.701 64.701 28.756 64.701 64.701-28.756 63.674-64.701 63.674zM196.158 714.508c-35.945 0-64.701-28.756-64.701-64.701 0-34.918 28.756-63.674 64.701-63.674s63.674 28.756 63.674 63.674c0 35.945-28.756 64.701-63.674 64.701z" />
<glyph unicode="&#xf111;" glyph-name="circle" d="M513.502 829.532c-275.238 0-497.070-221.833-497.070-497.070s221.833-497.070 497.070-497.070 497.070 221.833 497.070 497.070-221.833 497.070-497.070 497.070z" />
<glyph unicode="&#xf144;" glyph-name="play-circle" d="M745.606 368.407l-353.29 214.644c-31.837 17.459-70.863-5.135-70.863-42.107v-416.964c0-36.972 39.026-59.566 70.863-42.107l353.29 202.32c32.864 18.486 32.864 65.728 0 84.214zM1010.574 332.462c0 275.238-221.833 497.070-497.070 497.070s-497.070-221.833-497.070-497.070 221.833-497.070 497.070-497.070 497.070 221.833 497.070 497.070zM111.943 332.462c0 221.833 179.726 401.559 401.559 401.559s401.559-179.726 401.559-401.559-179.726-401.559-401.559-401.559-401.559 179.726-401.559 401.559z" />
<glyph unicode="&#xf164;" glyph-name="thumbs-up" d="M208.482 397.163h-160.212c-26.702 0-48.269-21.567-48.269-48.269v-481.665c0-26.702 21.567-48.269 48.269-48.269h160.212c26.702 0 48.269 21.567 48.269 48.269v481.665c0 26.702-21.567 48.269-48.269 48.269zM128.375-100.935c-26.702 0-48.269 21.567-48.269 48.269s21.567 48.269 48.269 48.269 48.269-21.567 48.269-48.269-21.567-48.269-48.269-48.269zM770.254 682.671c0-85.241-52.377-132.483-66.755-189.996h204.374c66.755 0 119.132-55.458 119.132-116.051 0-35.945-15.405-74.971-39.026-98.592v0c19.513-47.242 16.432-112.97-18.486-160.212 17.459-51.35 0-115.024-32.864-149.942 8.216-34.918 4.108-64.701-12.324-89.349-41.080-58.539-142.753-59.566-229.022-59.566h-5.135c-96.538 0-176.645 34.918-240.319 63.674-31.837 14.378-73.944 31.837-104.754 32.864-13.351 0-23.621 10.27-23.621 23.621v429.288c0 6.162 2.054 12.324 6.162 16.432 80.106 79.079 113.997 162.266 179.726 226.968 28.756 29.783 40.053 74.971 50.323 118.105 9.243 36.972 27.729 116.051 67.782 116.051 48.269 0 144.807-16.432 144.807-163.293z" />
<glyph unicode="&#xf165;" glyph-name="thumbs-down" d="M0 734.021v-481.665c0-26.702 21.567-48.269 48.269-48.269h160.212c26.702 0 48.269 21.567 48.269 48.269v481.665c0 26.702-21.567 48.269-48.269 48.269h-160.212c-26.702 0-48.269-21.567-48.269-48.269zM80.106 332.462c0 26.702 21.567 48.269 48.269 48.269s48.269-21.567 48.269-48.269-21.567-48.269-48.269-48.269-48.269 21.567-48.269 48.269zM625.447-181.042c-40.053 0-58.539 79.079-67.782 116.051-10.27 43.134-21.567 88.322-50.323 118.105-65.728 64.701-99.619 147.888-178.699 226.968-4.438 4.299-7.194 10.315-7.194 16.975 0 0.17 0.002 0.34 0.005 0.509v-0.025 428.261c0 13.351 10.27 23.621 23.621 23.621 30.81 1.027 72.917 18.486 104.754 32.864 63.674 28.756 143.78 63.674 240.319 63.674h5.135c86.268 0 187.942-1.027 229.022-59.566 16.432-24.648 20.54-54.431 12.324-89.349 32.864-34.918 50.323-98.592 32.864-149.942 34.918-47.242 37.999-112.97 18.486-159.185v-1.027c23.621-23.621 39.026-62.647 39.026-98.592 0-60.593-52.377-116.051-119.132-116.051h-204.374c14.378-57.512 66.755-104.754 66.755-189.996 0-146.861-96.538-163.293-144.807-163.293z" />
<glyph unicode="&#xf16d;" glyph-name="instagram" horiz-adv-x="899" d="M449.828 563.539c-127.348 0-231.076-103.727-231.076-231.076s103.727-230.049 231.076-230.049 230.049 102.7 230.049 230.049-102.7 231.076-230.049 231.076zM449.828 182.519c-83.187 0-149.942 67.782-149.942 149.942s66.755 149.942 149.942 149.942 149.942-66.755 149.942-149.942-67.782-149.942-149.942-149.942zM743.552 572.782c0-29.783-24.648-54.431-54.431-54.431s-53.404 24.648-53.404 54.431 23.621 53.404 53.404 53.404 54.431-23.621 54.431-53.404zM895.55 518.35c-3.081 71.89-19.513 135.564-71.89 187.942-53.404 52.377-117.078 68.809-188.969 72.917-73.944 4.108-296.805 4.108-370.749 0-71.89-4.108-135.564-20.54-187.942-72.917s-69.836-116.051-72.917-187.942c-4.108-73.944-4.108-296.805 0-370.749 3.081-71.89 19.513-135.564 72.917-188.969s116.051-68.809 187.942-71.89c73.944-5.135 296.805-5.135 370.749 0 71.89 3.081 135.564 19.513 188.969 71.89 52.377 53.404 68.809 117.078 71.89 188.969 4.108 73.944 4.108 295.778 0 370.749zM800.038 67.494c-15.405-39.026-46.215-69.836-85.241-85.241-59.566-23.621-200.266-18.486-264.968-18.486s-206.428-5.135-264.968 18.486c-40.053 15.405-69.836 46.215-85.241 85.241-23.621 59.566-18.486 200.266-18.486 264.968s-5.135 206.428 18.486 264.968c15.405 40.053 45.188 69.836 85.241 85.241 58.539 23.621 199.239 18.486 264.968 18.486s205.401 5.135 264.968-18.486c39.026-15.405 69.836-45.188 85.241-85.241 23.621-58.539 18.486-199.239 18.486-264.968s5.135-205.401-18.486-264.968z" />
<glyph unicode="&#xf1de;" glyph-name="sliders-h" d="M1010.574 75.71h-625.447v80.106c0 26.702-21.567 48.269-48.269 48.269h-96.538c-26.702 0-47.242-21.567-47.242-48.269v-80.106h-176.645c-9.243 0-16.432-7.189-16.432-16.432v-31.837c0-8.216 7.189-15.405 16.432-15.405h176.645v-81.133c0-26.702 20.54-48.269 47.242-48.269h96.538c26.702 0 48.269 21.567 48.269 48.269v81.133h625.447c9.243 0 16.432 7.189 16.432 15.405v31.837c0 9.243-7.189 16.432-16.432 16.432zM1010.574 653.915h-497.070v80.106c0 26.702-21.567 48.269-48.269 48.269h-96.538c-26.702 0-47.242-21.567-47.242-48.269v-80.106h-305.021c-9.243 0-16.432-7.189-16.432-16.432v-31.837c0-9.243 7.189-16.432 16.432-16.432h305.021v-80.106c0-26.702 20.54-48.269 47.242-48.269h96.538c26.702 0 48.269 21.567 48.269 48.269v80.106h497.070c9.243 0 16.432 7.189 16.432 16.432v31.837c0 9.243-7.189 16.432-16.432 16.432zM1010.574 364.299h-175.618v80.106c0 26.702-21.567 48.269-48.269 48.269h-96.538c-26.702 0-48.269-21.567-48.269-48.269v-80.106h-625.447c-9.243 0-16.432-7.189-16.432-15.405v-32.864c0-8.216 7.189-15.405 16.432-15.405h625.447v-80.106c0-26.702 21.567-48.269 48.269-48.269h96.538c26.702 0 48.269 21.567 48.269 48.269v80.106h175.618c9.243 0 16.432 7.189 16.432 15.405v32.864c0 8.216-7.189 15.405-16.432 15.405z" />
<glyph unicode="&#xf231;" glyph-name="pinterest-p" horiz-adv-x="771" d="M408.748 832.613c-205.401 0-408.748-136.591-408.748-358.425 0-141.726 79.079-221.833 127.348-221.833 20.54 0 31.837 55.458 31.837 70.863 0 18.486-48.269 58.539-48.269 135.564 0 162.266 123.24 276.265 282.427 276.265 136.591 0 237.238-78.052 237.238-220.806 0-105.781-42.107-306.048-180.753-306.048-50.323 0-92.43 35.945-92.43 88.322 0 75.998 52.377 148.915 52.377 226.968 0 132.483-187.942 108.862-187.942-51.35 0-33.891 4.108-70.863 18.486-101.673-27.729-119.132-84.214-296.805-84.214-420.045 0-37.999 6.162-74.971 9.243-112.97 7.189-7.189 4.108-7.189 14.378-3.081 100.646 138.645 97.565 165.347 142.753 347.128 24.648-47.242 88.322-72.917 138.645-72.917 213.617 0 309.129 208.482 309.129 395.397 0 199.239-172.536 328.642-361.506 328.642z" />
<glyph unicode="&#xf26c;" glyph-name="tv" horiz-adv-x="1283" d="M1187.218 845.964h-1090.68c-53.317 0-96.538-43.221-96.538-96.538v0-641.879c0.582-52.874 43.578-95.511 96.533-95.511 0.002 0 0.004 0 0.006 0h513.502v-129.402h-336.858c-0.010 0-0.021 0-0.032 0-8.714 0-15.842-6.784-16.397-15.357l-0.002-0.048v-31.837c0-9.076 7.356-16.432 16.432-16.432v0h737.39c9.076 0 16.432 7.356 16.432 16.432v0 31.837c-0.558 8.621-7.686 15.405-16.4 15.405-0.011 0-0.023 0-0.034 0h-336.856v129.402h513.502c0.002 0 0.004 0 0.005 0 52.957 0 95.954 42.64 96.532 95.456v641.934c0 53.317-43.221 96.538-96.538 96.538v0zM1220.082 107.547c0-0.005 0-0.011 0-0.017 0-17.583-14.254-31.837-31.837-31.837-0.36 0-0.722 0.006-1.079 0.018l0.052-0.001h-1090.68c-17.583 0-31.837 14.254-31.837 31.837v0 641.879c-0.011 0.305-0.017 0.667-0.017 1.027 0 17.583 14.254 31.837 31.837 31.837 0.006 0 0.012 0 0.017 0h1090.679c0.31 0.011 0.678 0.017 1.044 0.017 17.583 0 31.837-14.254 31.837-31.837 0-0.366-0.006-0.734-0.018-1.097l0.001 0.053z" />
<glyph unicode="&#xf290;" glyph-name="shopping-bag" horiz-adv-x="899" d="M706.58 589.214c0 141.726-116.051 256.751-256.751 256.751-141.726 0-256.751-115.024-256.751-256.751h-193.077v-610.042c0-88.322 71.89-160.212 160.212-160.212h578.205c88.322 0 160.212 71.89 160.212 160.212v610.042h-192.050zM449.828 782.29c105.781 0 192.050-87.295 192.050-193.077h-385.127c0 105.781 86.268 193.077 193.077 193.077zM834.956 525.539v-546.368c0-53.404-43.134-96.538-96.538-96.538h-578.205c-52.377 0-95.511 43.134-95.511 96.538v546.368M256.751 525.539" />
<glyph unicode="&#xf2f1;" glyph-name="sync-alt" d="M969.494 788.452l-103.727-103.727c-90.376 89.349-214.644 144.807-352.263 144.807-265.995 0-483.719-208.482-497.070-472.422 0-13.351 10.27-24.648 24.648-24.648h55.458c13.351 0 23.621 10.27 24.648 22.594 11.297 206.428 182.807 370.749 392.316 370.749 108.862 0 207.455-44.161 278.319-115.024l-108.862-108.862c-15.405-15.405-4.108-41.080 17.459-41.080h286.535c13.351 0 23.621 11.297 23.621 23.621v287.562c0 21.567-25.675 31.837-41.080 16.432zM985.926 332.462h-55.458c-13.351 0-23.621-10.27-24.648-22.594-11.297-206.428-182.807-370.749-392.316-370.749-108.862 0-206.428 44.161-278.319 115.024l108.862 108.862c15.405 15.405 4.108 41.080-17.459 41.080h-286.535c-13.351 0-23.621-10.27-23.621-23.621v-287.562c0-21.567 25.675-31.837 41.080-16.432l104.754 104.754c89.349-90.376 213.617-145.834 351.236-145.834 265.995 0 483.719 208.482 497.070 472.422 0 13.351-10.27 24.648-24.648 24.648z" />
<glyph unicode="&#xf39e;" glyph-name="facebook-f" horiz-adv-x="643" d="M559.719 268.788l28.756 185.888h-178.699v120.159c0 50.323 25.675 100.646 104.754 100.646h81.133v158.158s-72.917 12.324-143.78 12.324c-146.861 0-242.373-89.349-242.373-250.589v-140.699h-163.293v-185.888h163.293v-449.828h200.266v449.828z" />
<glyph unicode="&#xf422;" glyph-name="compress-alt" horiz-adv-x="899" d="M9.243-11.585l199.239 199.239-65.728 62.647c-30.81 30.81-9.243 82.16 33.891 82.16h224.914c26.702 0 48.269-21.567 48.269-48.269v-224.914c0-42.107-52.377-63.674-82.16-33.891l-62.647 66.755-199.239-199.239c-12.324-13.351-32.864-13.351-45.188 0l-51.35 50.323c-12.324 12.324-12.324 32.864 0 45.188zM889.388 676.509l-199.239-199.239 65.728-62.647c30.81-29.783 9.243-82.16-33.891-82.16h-224.914c-26.702 0-47.242 21.567-47.242 48.269v224.914c0 42.107 51.35 63.674 81.133 33.891l62.647-66.755 199.239 199.239c12.324 13.351 32.864 13.351 45.188 0l51.35-50.323c12.324-12.324 12.324-32.864 0-45.188z" />
<glyph unicode="&#xf424;" glyph-name="expand-alt" horiz-adv-x="899" d="M426.207 213.33l-185.888-185.888 66.755-62.647c29.783-29.783 8.216-82.16-33.891-82.16h-224.914c-26.702 0-48.269 21.567-48.269 48.269v224.914c0 43.134 51.35 64.701 82.16 33.891l62.647-65.728 185.888 185.888c12.324 12.324 32.864 12.324 45.188 0l50.323-51.35c13.351-12.324 13.351-32.864 0-45.188zM472.422 451.595l185.888 185.888-66.755 62.647c-29.783 29.783-8.216 82.16 34.918 82.16h223.887c26.702 0 48.269-21.567 48.269-48.269v-224.914c0-43.134-51.35-64.701-82.16-33.891l-62.647 65.728-185.888-185.888c-12.324-12.324-32.864-12.324-45.188 0l-50.323 51.35c-13.351 12.324-13.351 32.864 0 45.188z" />
<glyph unicode="&#xf6a9;" glyph-name="volume-mute" d="M431.342 703.211l-178.699-177.672h-204.374c-26.702 0-48.269-21.567-48.269-48.269v-289.616c0-25.675 21.567-47.242 48.269-47.242h204.374l178.699-178.699c29.783-30.81 82.16-9.243 82.16 33.891v673.716c0 43.134-52.377 64.701-82.16 33.891zM926.36 332.462l91.403 91.403c12.324 12.324 12.324 32.864 0 46.215l-46.215 45.188c-12.324 13.351-32.864 13.351-45.188 0l-91.403-91.403-92.43 91.403c-12.324 13.351-32.864 13.351-45.188 0l-46.215-45.188c-12.324-13.351-12.324-33.891 0-46.215l91.403-91.403-91.403-91.403c-12.324-12.324-12.324-32.864 0-46.215l46.215-45.188c12.324-13.351 32.864-13.351 45.188 0l92.43 91.403 91.403-91.403c12.324-13.351 32.864-13.351 45.188 0l46.215 45.188c12.324 13.351 12.324 33.891 0 46.215l-91.403 91.403z" />
<glyph unicode="&#xf6b0;" glyph-name="heart-solid" d="M927.387 720.67c-109.889 93.457-273.184 77.025-373.83-27.729l-40.053-40.053-39.026 40.053c-100.646 104.754-264.968 121.186-374.857 27.729-126.321-107.835-132.483-300.913-19.513-416.964l388.208-401.559c24.648-25.675 65.728-25.675 90.376 0l388.208 401.559c112.97 116.051 106.808 309.129-19.513 416.964z" />
<glyph unicode="&#xf6b4;" glyph-name="shopping-bag-solid" horiz-adv-x="899" d="M706.58 589.214c0 141.726-116.051 256.751-256.751 256.751-141.726 0-256.751-115.024-256.751-256.751h-193.077v-610.042c0-88.322 71.89-160.212 160.212-160.212h578.205c88.322 0 160.212 71.89 160.212 160.212v610.042h-192.050zM449.828 782.29c105.781 0 192.050-87.295 192.050-193.077h-385.127c0 105.781 86.268 193.077 193.077 193.077z" />
<glyph unicode="&#xf6d5;" glyph-name="user-solid" horiz-adv-x="899" d="M449.828 332.462c141.726 0 256.751 115.024 256.751 256.751s-115.024 256.751-256.751 256.751-256.751-115.024-256.751-256.751 113.997-256.751 256.751-256.751zM629.555 268.788h-33.891c-44.161-20.54-94.484-32.864-145.834-32.864s-101.673 12.324-146.861 32.864h-32.864c-148.915 0-270.103-121.186-270.103-270.103v-83.187c0-53.404 43.134-96.538 96.538-96.538h705.553c53.404 0 96.538 43.134 96.538 96.538v83.187c0 148.915-121.186 270.103-269.076 270.103z" />
</font>
</defs>
</svg>
